<svg id="svg" version="1.1" xmlns="http://www.w3.org/2000/svg" xmlns:xlink="http://www.w3.org/1999/xlink" width="400" height="400" viewBox="0, 0, 400,400"><g id="svgg"><path id="path0" d="M236.035 89.742 C 237.271 89.819,239.292 89.819,240.527 89.742 C 241.763 89.664,240.752 89.601,238.281 89.601 C 235.811 89.601,234.800 89.664,236.035 89.742 M312.623 118.790 C 310.586 119.379,309.208 121.164,305.633 127.841 C 303.767 131.327,300.835 136.721,299.119 139.827 C 295.189 146.937,294.923 148.740,297.337 151.908 C 298.606 153.573,298.221 154.577,292.942 163.384 C 283.688 178.823,283.948 177.826,283.618 199.219 C 283.273 221.499,285.295 217.650,261.044 242.201 C 249.215 254.176,248.956 254.621,250.625 260.083 C 251.989 264.542,249.858 268.228,240.416 277.743 L 235.563 282.634 237.435 285.450 L 239.308 288.265 244.808 282.707 C 255.608 271.793,258.386 267.787,259.683 261.259 L 260.352 257.896 271.289 246.807 C 293.863 223.920,294.915 221.745,294.929 197.921 C 294.938 182.158,295.040 181.718,301.046 171.483 C 302.747 168.583,304.989 164.687,306.028 162.825 C 308.004 159.282,308.373 158.999,311.027 158.990 C 315.514 158.973,316.009 158.325,326.236 139.063 C 332.201 127.830,331.941 126.994,320.729 121.315 C 314.613 118.217,314.608 118.216,312.623 118.790 M169.588 201.154 C 145.983 206.950,137.569 236.486,154.671 253.516 C 178.057 276.804,217.630 252.771,206.701 221.918 C 201.236 206.492,184.952 197.381,169.588 201.154 M180.781 223.989 C 189.574 228.582,183.323 242.462,174.423 238.107 C 168.599 235.258,168.594 227.071,174.414 224.051 C 175.877 223.291,179.381 223.257,180.781 223.989 " stroke="none" fill="#2e313b" fill-rule="evenodd"></path><path id="path1" d="M166.992 149.235 C 162.820 149.704,157.027 150.972,151.637 152.594 C 149.207 153.325,147.026 153.804,146.791 153.659 C 146.556 153.514,146.468 153.563,146.595 153.769 C 146.722 153.976,145.651 154.642,144.214 155.250 C 106.096 171.382,85.168 212.388,94.940 251.796 C 95.371 253.536,95.615 255.294,95.481 255.703 C 95.282 256.313,95.314 256.341,95.660 255.859 C 96.025 255.352,96.083 255.365,96.088 255.952 C 96.099 257.196,99.219 264.982,101.572 269.640 C 127.078 320.115,195.950 332.345,234.827 293.303 C 239.583 288.527,239.558 288.612,237.230 285.167 C 236.201 283.644,235.299 282.581,235.224 282.803 C 235.150 283.026,234.924 283.106,234.721 282.980 C 234.518 282.855,233.660 282.703,232.815 282.643 C 229.742 282.424,223.583 277.551,221.847 273.965 C 220.299 270.768,220.879 269.894,230.042 261.606 C 233.177 258.770,236.621 255.640,237.695 254.650 C 241.926 250.751,242.900 250.000,243.725 250.000 C 245.152 250.000,246.094 249.289,250.977 244.526 C 257.125 238.528,258.808 237.063,259.154 237.409 C 259.311 237.567,259.386 237.520,259.321 237.305 C 259.255 237.090,259.513 236.448,259.894 235.878 C 264.429 229.095,258.168 202.273,248.637 187.650 C 247.445 185.821,246.588 184.133,246.732 183.899 C 246.877 183.665,246.817 183.583,246.600 183.718 C 246.382 183.853,245.085 182.517,243.719 180.751 C 226.392 158.353,196.190 145.947,166.992 149.235 M183.276 200.958 C 200.650 204.640,212.277 223.407,207.490 240.039 C 199.693 267.127,161.510 270.945,148.903 245.898 C 137.168 222.583,157.832 195.565,183.276 200.958 " stroke="none" fill="#fb6284" fill-rule="evenodd"></path><path id="path2" d="M265.375 65.896 C 265.472 65.993,264.909 66.661,264.123 67.381 L 262.695 68.690 262.591 101.465 L 262.487 134.240 263.387 135.577 C 264.873 137.784,265.783 138.009,273.625 138.106 C 283.914 138.233,286.179 137.923,287.784 136.172 L 289.063 134.777 289.068 127.057 C 289.115 62.333,289.395 68.432,286.287 66.602 C 285.060 65.879,264.670 65.191,265.375 65.896 M290.325 264.914 C 288.763 265.080,287.130 265.405,286.697 265.637 C 286.263 265.869,285.519 265.963,285.044 265.846 C 284.569 265.728,284.390 265.730,284.647 265.850 C 285.111 266.065,280.314 268.825,279.412 268.861 C 279.153 268.872,279.023 269.013,279.123 269.176 C 279.383 269.596,277.125 271.129,276.749 270.789 C 276.577 270.634,276.556 270.715,276.702 270.969 C 276.959 271.418,276.334 272.052,275.623 272.064 C 275.429 272.068,275.222 272.397,275.163 272.796 C 275.105 273.195,274.718 273.899,274.304 274.359 C 273.890 274.819,273.108 275.956,272.567 276.885 C 272.026 277.814,271.429 278.576,271.241 278.578 C 271.052 278.579,270.811 278.682,270.703 278.806 C 270.596 278.930,270.757 278.887,271.062 278.709 C 271.467 278.475,271.554 278.552,271.385 278.992 C 269.681 283.433,268.615 295.925,270.014 295.060 C 270.178 294.959,270.313 295.194,270.314 295.582 C 270.314 295.971,270.930 297.509,271.681 299.001 C 273.217 302.051,273.235 302.108,272.559 301.718 C 272.275 301.555,272.207 301.586,272.396 301.793 C 272.575 301.988,272.839 302.152,272.982 302.156 C 273.413 302.168,279.046 307.982,278.963 308.330 C 278.921 308.507,279.034 308.561,279.214 308.450 C 279.691 308.155,281.700 309.570,281.351 309.955 C 281.188 310.135,281.247 310.172,281.482 310.038 C 281.717 309.904,282.816 310.139,283.923 310.560 C 287.514 311.924,297.656 313.051,297.656 312.086 C 297.656 311.965,298.497 311.651,299.524 311.388 C 300.552 311.124,302.313 310.483,303.437 309.961 C 304.562 309.440,305.787 309.112,306.159 309.231 C 306.626 309.381,306.686 309.340,306.352 309.098 C 306.003 308.846,306.403 308.340,307.783 307.287 C 318.974 298.753,320.399 283.071,310.937 272.587 C 309.664 271.177,308.748 269.884,308.901 269.714 C 309.054 269.545,308.973 269.525,308.719 269.670 C 308.466 269.815,307.468 269.399,306.500 268.746 C 301.740 265.533,296.410 264.271,290.325 264.914 " stroke="none" fill="#6cdbdf" fill-rule="evenodd"></path><path id="path3" d="M192.969 53.516 C 184.350 53.860,185.197 49.247,185.210 95.805 L 185.221 134.355 186.082 135.635 C 187.676 138.002,188.143 138.086,199.805 138.086 C 211.517 138.086,211.944 138.002,213.521 135.396 C 214.685 133.474,214.669 57.905,213.504 55.981 C 211.984 53.469,207.525 52.933,192.969 53.516 M226.269 90.381 C 224.235 91.981,224.219 92.166,224.219 113.874 C 224.219 139.971,223.324 138.055,235.543 138.114 C 244.807 138.159,248.750 137.863,249.240 137.088 C 249.437 136.778,249.600 136.689,249.603 136.892 C 249.607 137.095,250.053 136.660,250.596 135.924 L 251.582 134.588 251.474 113.395 L 251.367 92.202 250.120 90.956 L 248.874 89.709 238.058 89.662 C 227.868 89.618,227.186 89.660,226.269 90.381 " stroke="none" fill="#975abd" fill-rule="evenodd"></path><path id="path4" d="M148.778 77.611 C 146.396 79.090,146.495 77.812,146.479 107.378 C 146.463 137.114,146.378 136.037,148.868 137.325 C 151.878 138.882,170.568 138.294,172.064 136.596 C 173.894 134.521,173.839 135.454,173.823 106.972 L 173.807 79.965 172.301 78.459 L 170.795 76.953 160.300 76.964 C 151.290 76.972,149.659 77.064,148.778 77.611 M112.891 94.893 C 108.357 95.804,108.447 95.368,108.449 116.420 C 108.450 140.006,107.192 138.039,122.278 138.028 C 137.261 138.017,135.938 140.117,135.936 116.346 C 135.934 96.271,135.935 96.277,133.308 95.278 C 132.072 94.808,114.922 94.485,112.891 94.893 " stroke="none" fill="#f4bf50" fill-rule="evenodd"></path></g></svg>